<svg width="16" height="16" viewBox="0 0 16 16" fill="none" xmlns="http://www.w3.org/2000/svg">
<g id="logo-instagram">
<path id="Vector" d="M10.9166 2.16656C11.6895 2.16887 12.43 2.47692 12.9766 3.02345C13.5231 3.56997 13.8311 4.31054 13.8334 5.08344V10.9166C13.8311 11.6895 13.5231 12.43 12.9766 12.9766C12.43 13.5231 11.6895 13.8311 10.9166 13.8334H5.08344C4.31054 13.8311 3.56997 13.5231 3.02345 12.9766C2.47692 12.43 2.16887 11.6895 2.16656 10.9166V5.08344C2.16887 4.31054 2.47692 3.56997 3.02345 3.02345C3.56997 2.47692 4.31054 2.16887 5.08344 2.16656H10.9166ZM10.9166 1H5.08344C2.8375 1 1 2.8375 1 5.08344V10.9166C1 13.1625 2.8375 15 5.08344 15H10.9166C13.1625 15 15 13.1625 15 10.9166V5.08344C15 2.8375 13.1625 1 10.9166 1Z" fill="#F0F5FF"/>
<path id="Vector_2" d="M11.7916 5.08398C11.6185 5.08398 11.4493 5.03267 11.3054 4.93652C11.1615 4.84037 11.0494 4.70372 10.9832 4.54383C10.9169 4.38395 10.8996 4.20801 10.9334 4.03828C10.9671 3.86855 11.0505 3.71264 11.1728 3.59027C11.2952 3.4679 11.4511 3.38456 11.6209 3.3508C11.7906 3.31704 11.9665 3.33436 12.1264 3.40059C12.2863 3.46682 12.423 3.57897 12.5191 3.72286C12.6152 3.86675 12.6666 4.03593 12.6666 4.20898C12.6668 4.32396 12.6443 4.43785 12.6005 4.54412C12.5566 4.6504 12.4921 4.74695 12.4108 4.82825C12.3295 4.90955 12.233 4.974 12.1267 5.01788C12.0204 5.06177 11.9065 5.08423 11.7916 5.08398ZM8 5.66711C8.46151 5.66711 8.91266 5.80396 9.29639 6.06036C9.68012 6.31677 9.9792 6.6812 10.1558 7.10758C10.3324 7.53396 10.3786 8.00314 10.2886 8.45578C10.1986 8.90842 9.97633 9.3242 9.64999 9.65054C9.32365 9.97687 8.90787 10.1991 8.45523 10.2891C8.00259 10.3792 7.53341 10.333 7.10703 10.1564C6.68065 9.97975 6.31622 9.68067 6.05982 9.29694C5.80342 8.9132 5.66656 8.46206 5.66656 8.00055C5.66723 7.38188 5.91328 6.78875 6.35074 6.35129C6.7882 5.91383 7.38134 5.66777 8 5.66711ZM8 4.50055C7.30777 4.50055 6.63108 4.70582 6.05551 5.0904C5.47993 5.47499 5.03133 6.02161 4.76642 6.66115C4.50152 7.3007 4.4322 8.00443 4.56725 8.68336C4.7023 9.3623 5.03564 9.98594 5.52513 10.4754C6.01461 10.9649 6.63825 11.2982 7.31719 11.4333C7.99612 11.5683 8.69985 11.499 9.33939 11.2341C9.97893 10.9692 10.5256 10.5206 10.9101 9.94504C11.2947 9.36947 11.5 8.69278 11.5 8.00055C11.5 7.07229 11.1313 6.18205 10.4749 5.52567C9.8185 4.8693 8.92826 4.50055 8 4.50055Z" fill="#F0F5FF"/>
</g>
</svg>
