<svg viewBox="0 0 16 16" fill="none" xmlns="http://www.w3.org/2000/svg"><path d="M10.917 2.167a2.926 2.926 0 0 1 2.916 2.916v5.834a2.926 2.926 0 0 1-2.916 2.916H5.083a2.926 2.926 0 0 1-2.916-2.916V5.083a2.926 2.926 0 0 1 2.916-2.916h5.834Zm0-1.167H5.083A4.095 4.095 0 0 0 1 5.083v5.834A4.095 4.095 0 0 0 5.083 15h5.834A4.095 4.095 0 0 0 15 10.917V5.083A4.095 4.095 0 0 0 10.917 1Z" fill="#ABA7A6"/><path d="M11.792 5.084a.875.875 0 1 1 0-1.75.875.875 0 0 1 0 1.75ZM8 5.667a2.333 2.333 0 1 1 0 4.667 2.333 2.333 0 0 1 0-4.667Zm0-1.166a3.5 3.5 0 1 0 0 7 3.5 3.5 0 0 0 0-7Z" fill="#ABA7A6"/></svg>