<svg viewBox="0 0 16 16" fill="none" xmlns="http://www.w3.org/2000/svg"><g clip-path="url(#a)"><path d="M15.895 4.65c0-1.407-1.034-2.538-2.313-2.538-1.73-.08-3.496-.112-5.3-.112h-.563c-1.8 0-3.57.031-5.3.112-1.275 0-2.31 1.138-2.31 2.544A46.487 46.487 0 0 0 0 7.993a48.389 48.389 0 0 0 .107 3.341c0 1.406 1.035 2.547 2.31 2.547 1.818.084 3.684.122 5.58.119 1.9.006 3.761-.034 5.582-.12 1.278 0 2.313-1.14 2.313-2.546.075-1.116.109-2.228.106-3.344a45.423 45.423 0 0 0-.102-3.34Zm-9.426 6.41V4.917l4.53 3.07-4.53 3.071Z" fill="#ABA7A6"/></g><defs><clipPath id="a"><path fill="#fff" d="M0 0h16v16H0z"/></clipPath></defs></svg>