<svg viewBox="0 0 16 16" fill="none" xmlns="http://www.w3.org/2000/svg"><path d="M10.395 2.018C9.787 1.362 8.938 1 8 1c-.942 0-1.795.36-2.4 1.012-.612.66-.91 1.556-.84 2.524C4.9 6.446 6.352 8 8 8c1.648 0 3.099-1.553 3.24-3.463.07-.96-.23-1.854-.845-2.519ZM13.5 15h-11a.97.97 0 0 1-.756-.348 1.104 1.104 0 0 1-.225-.91c.264-1.463 1.087-2.692 2.381-3.555C5.05 9.422 6.505 9 8 9c1.495 0 2.95.422 4.1 1.188 1.294.862 2.117 2.091 2.38 3.554.061.335-.02.667-.224.91A.968.968 0 0 1 13.5 15Z" fill="#242831"/></svg>