<svg viewBox="0 0 16 16" fill="none" xmlns="http://www.w3.org/2000/svg"><path d="M3.804 1a.125.125 0 0 0-.117.174l.072.17 1.272 2.965a.125.125 0 0 0 .215.026L7.594 1.2a.125.125 0 0 0-.1-.2h-3.69Zm9.319.814-1.29 3.012a.125.125 0 0 0 .115.174h3.156a.125.125 0 0 0 .106-.19l-1.866-3.012a.125.125 0 0 0-.221.016ZM2.656 1.8.79 4.81A.125.125 0 0 0 .897 5h3.156a.125.125 0 0 0 .114-.174l-1.292-3.01a.125.125 0 0 0-.219-.017ZM12.29 1H8.37a.06.06 0 0 0-.05.097l2.498 3.327a.06.06 0 0 0 .104-.012l1.316-3.068.106-.26A.06.06 0 0 0 12.29 1h-.001ZM7.469 14 4.674 6.078A.118.118 0 0 0 4.562 6H.803a.116.116 0 0 0-.092.188l6.75 8.744a.158.158 0 0 0 .274-.148L7.47 14Zm7.728-8h-3.76a.117.117 0 0 0-.11.078l-3.069 8.693a.163.163 0 0 0 .282.154l6.749-8.737a.116.116 0 0 0-.03-.17.116.116 0 0 0-.062-.018ZM8.1 2.467 9.85 4.8a.125.125 0 0 1-.1.2h-3.5a.125.125 0 0 1-.1-.2L7.9 2.467a.125.125 0 0 1 .2 0Zm-.219 9.697L5.766 6.167A.125.125 0 0 1 5.883 6h4.234a.125.125 0 0 1 .117.167l-2.116 5.997a.125.125 0 0 1-.236 0Z" fill="#F7F4F2"/></svg>