<svg viewBox="0 0 16 13" fill="none" xmlns="http://www.w3.org/2000/svg"><g fill="#F7F4F2"><path d="M8.863 2.164c-.13-.213-.51-.213-.863-.213-.352 0-.732 0-.863.213-.282.457-.758.728-1.234.728H3.401l.106-.687c.053-.29-.141-.561-.388-.561H1.833c-.247 0-.44.27-.388.561l.405 2.559c.053.353.317.603.617.603s.564-.25.617-.603l.088-.541L7.4 5.18c.405.083.81.083 1.198 0l4.212-.978.088.541c.053.354.317.603.617.603.299 0 .563-.25.616-.603l.405-2.558c.053-.292-.14-.562-.387-.562h-1.287c-.246 0-.44.27-.387.562l.105.686h-2.484c-.476 0-.952-.25-1.234-.707ZM2.115.812c.229-.042.475-.042.722 0 .617.125 1.445.208 1.621.208a.505.505 0 0 0 .494-.5c0-.27-.23-.499-.494-.499-.176 0-1.004.084-1.621.208-.23.042-.476.042-.722 0A12.595 12.595 0 0 0 .493.021a.505.505 0 0 0-.493.5c0 .27.23.499.493.499.177 0 1.005-.083 1.622-.208ZM15.507 0c-.176 0-1.005.083-1.621.208-.23.042-.476.042-.723 0A12.594 12.594 0 0 0 11.543 0a.505.505 0 0 0-.494.5c0 .27.229.498.493.498.176 0 1.005-.083 1.621-.208.23-.041.476-.041.723 0 .617.125 1.445.208 1.62.208A.505.505 0 0 0 16 .5C16 .23 15.771 0 15.507 0Z"/></g><rect x="3.429" y="7.092" width="9.143" height="5.909" rx="1" fill="#F7F4F2"/><path stroke="#F7F4F2" d="M7.967 5.201v2.6"/></svg>