<svg viewBox="0 0 16 16" fill="none" xmlns="http://www.w3.org/2000/svg"><path d="M8 2C4.687 2 2 4.688 2 8c0 3.313 2.688 6 6 6 3.313 0 6-2.688 6-6 0-3.313-2.688-6-6-6Zm.326 9.438h-.944a.08.08 0 0 1-.08-.08v-.945a.08.08 0 0 1 .08-.08h.944a.08.08 0 0 1 .08.08v.944a.08.08 0 0 1-.08.08Zm.531-3.094c-.506.34-.576.651-.576.937v.344a.094.094 0 0 1-.094.094H7.5a.094.094 0 0 1-.094-.094v-.344c0-.684.315-1.229.963-1.664.603-.404.944-.66.944-1.224 0-.383-.22-.674-.672-.89-.107-.05-.344-.1-.636-.096-.366.005-.65.092-.87.268-.412.333-.447.695-.447.7a2.053 2.053 0 0 0-.027.321.094.094 0 0 1-.093.094h-.665a.094.094 0 0 1-.093-.084c-.012-.125-.01-.25.003-.375.006-.076.056-.76.774-1.338.372-.299.845-.455 1.406-.461.397-.005.77.062 1.022.181.757.36 1.172.957 1.172 1.68 0 1.057-.706 1.532-1.33 1.95Z" fill="#242831"/></svg>