<svg viewBox="0 0 16 16" fill="none" xmlns="http://www.w3.org/2000/svg"><path d="M13.778 4.26a.124.124 0 0 0 .062-.109.125.125 0 0 0-.062-.108L9.005 1.27a2.004 2.004 0 0 0-2.01 0L2.223 4.043a.125.125 0 0 0 0 .216l5.715 3.362a.125.125 0 0 0 .126 0l5.714-3.362Zm-12.09.85a.125.125 0 0 0-.188.109v5.434a1.5 1.5 0 0 0 .745 1.293l5.067 3.039a.125.125 0 0 0 .188-.108V8.572a.125.125 0 0 0-.063-.108L1.688 5.11ZM8.5 8.594v6.28a.125.125 0 0 0 .188.11l5.067-3.04a1.5 1.5 0 0 0 .745-1.291V5.219a.125.125 0 0 0-.188-.108l-5.75 3.375a.125.125 0 0 0-.062.108Z" fill="#242831"/></svg>